<svg width="30" height="30" viewBox="0 0 30 30" fill="none" xmlns="http://www.w3.org/2000/svg">
<path d="M9.4205 7.8295C8.98116 7.39017 8.26884 7.39017 7.8295 7.8295C7.39017 8.26884 7.39017 8.98116 7.8295 9.4205L18.659 20.25H10.125C9.50368 20.25 9 20.7537 9 21.375C9 21.9963 9.50368 22.5 10.125 22.5H21.375C21.5275 22.5 21.673 22.4696 21.8056 22.4146C21.9353 22.361 22.057 22.282 22.1631 22.1778C22.1681 22.173 22.173 22.1681 22.1778 22.1631C22.282 22.057 22.361 21.9353 22.4146 21.8056C22.4696 21.673 22.5 21.5275 22.5 21.375V10.125C22.5 9.50368 21.9963 9 21.375 9C20.7537 9 20.25 9.50368 20.25 10.125V18.659L9.4205 7.8295Z" fill="#0F172A"/>
</svg>
