<svg width="40" height="41" viewBox="0 0 40 41" fill="none" xmlns="http://www.w3.org/2000/svg">
<path d="M20 30.5V21.75M20 21.75C20.8632 21.75 21.701 21.6407 22.5 21.4351M20 21.75C19.1368 21.75 18.2991 21.6407 17.5 21.4351M23.75 33.899C22.5353 34.1295 21.2817 34.25 20 34.25C18.7183 34.25 17.4647 34.1295 16.25 33.899M22.5 37.87C21.6784 37.9559 20.8443 38 20 38C19.1557 38 18.3216 37.9559 17.5 37.87M23.75 30.5V30.1806C23.75 28.5424 24.8471 27.1417 26.2641 26.3196C29.9926 24.1563 32.5 20.1209 32.5 15.5C32.5 8.59644 26.9036 3 20 3C13.0964 3 7.5 8.59644 7.5 15.5C7.5 20.1209 10.0074 24.1563 13.7359 26.3196C15.1529 27.1417 16.25 28.5424 16.25 30.1806V30.5" stroke="#0A0C10" stroke-width="1.5" stroke-linecap="round" stroke-linejoin="round"/>
</svg>
