<svg width="315" height="72" viewBox="0 0 315 72" fill="none" xmlns="http://www.w3.org/2000/svg">
<path d="M29.3798 21.44L29.9798 21.55V59.55H21.2598V13.36H33.2598L53.9998 51.3L53.4098 51.44V13.36H62.1198V59.56H49.9998L29.3798 21.44Z" fill="#383838"/>
<path d="M93.3099 13.36H64.6499V59.56H93.3099V51.82H73.3099V21.09H93.3099V13.36Z" fill="#383838"/>
<path d="M153.88 21.09H142.3V13.36H174.18V21.09H162.63V59.56H153.88V21.09Z" fill="#383838"/>
<path d="M113.65 33.36H75.8599V39.55H113.65V33.36Z" fill="#BA6B32"/>
<path d="M118.16 26.84L109.46 13.7H98.3598L113.24 35.05L96.8198 59.9H107.36L118.29 43C118.23 37.63 118.1 32.23 118.16 26.84Z" fill="#BA6B32"/>
<path d="M120.76 26.76L129.45 13.53H140.55L125.67 35L142.09 60H131.55L120.62 43C120.68 37.64 120.81 32.2 120.76 26.76Z" fill="#BA6B32"/>
<path d="M193.68 13.7H222.35V21.43H202.35V33H222.06V40.49H202.36V52.16H222.36V59.9H193.68V13.7Z" fill="#383838"/>
<path d="M224.71 13.7H242.49C244.921 13.6656 247.324 14.2251 249.49 15.33C251.552 16.4055 253.268 18.0417 254.44 20.05C255.717 22.3281 256.352 24.9095 256.28 27.52C256.377 29.9967 255.822 32.4555 254.67 34.65C253.743 36.3399 252.414 37.7755 250.8 38.83C249.542 39.6677 248.115 40.2174 246.62 40.44L258 59.9H248.13L237.87 41.1H233.43V59.9H224.71V13.7ZM233.43 34.94H239.38C241.379 34.9972 243.345 34.4234 245 33.3C246.553 32.2 247.33 30.3566 247.33 27.77C247.33 25.1833 246.56 23.3566 245.02 22.29C243.362 21.1956 241.406 20.6402 239.42 20.7H233.42L233.43 34.94Z" fill="#383838"/>
<path d="M276.84 13.7H285.62L303.4 59.9H294.09L290.49 49.9H272L268.32 59.9H259L276.84 13.7ZM274.84 42.19H287.58L281.24 24.27H281.13L274.84 42.19Z" fill="#383838"/>
</svg>
