<svg width="315" height="72" viewBox="0 0 315 72" fill="none" xmlns="http://www.w3.org/2000/svg">
<path d="M24.07 21.58L24.67 21.69V59.69H16V13.5H28L48.71 51.44L48.12 51.58V13.5H56.83V59.7H44.72L24.07 21.58Z" fill="#F5F5F5"/>
<path d="M87.9998 13.5H59.3398V59.7H87.9998V52H67.9998V21.23H87.9998V13.5Z" fill="#F5F5F5"/>
<path d="M148.57 21.23H137V13.5H168.88V21.23H157.32V59.7H148.57V21.23Z" fill="#F5F5F5"/>
<path d="M108.34 33.5H70.5498V39.69H108.34V33.5Z" fill="#BA6B32"/>
<path d="M112.85 27L104.15 13.86H93.0498L107.93 35.21L91.5098 60H102.05L113 43.17C112.92 37.77 112.79 32.37 112.85 27Z" fill="#BA6B32"/>
<path d="M115.45 26.9L124.14 13.67H135.24L120.36 35.17L136.78 60.17H126.24L115.31 43.17C115.37 37.78 115.5 32.34 115.45 26.9Z" fill="#BA6B32"/>
<path d="M188.37 13.84H217V21.57H197V33.12H216.71V40.61H197.05V52.3H217.05V60H188.37V13.84Z" fill="#F5F5F5"/>
<path d="M219.4 13.84H237.18C239.61 13.8073 242.011 14.3631 244.18 15.46C246.242 16.5391 247.958 18.1787 249.13 20.19C250.419 22.4642 251.066 25.0465 251 27.66C251.097 30.1335 250.542 32.589 249.39 34.78C248.47 36.4826 247.144 37.9321 245.53 39C244.272 39.8377 242.845 40.3874 241.35 40.61L252.69 60H242.82L232.56 41.2H228.12V60H219.4V13.84ZM228.12 35.08H234.07C236.079 35.1388 238.055 34.5651 239.72 33.44C241.273 32.34 242.05 30.4967 242.05 27.91C242.05 25.3233 241.28 23.4967 239.74 22.43C238.082 21.3356 236.126 20.7802 234.14 20.84H228.14L228.12 35.08Z" fill="#F5F5F5"/>
<path d="M271.53 13.84H280.31L298.09 60H288.78L285.18 50H266.7L263 60H253.66L271.53 13.84ZM269.53 42.33H282.27L276 24.41H275.9L269.53 42.33Z" fill="#F5F5F5"/>
</svg>
