<svg width="31" height="31" viewBox="0 0 31 31" fill="none" xmlns="http://www.w3.org/2000/svg">
<path d="M27.6875 8.62335V21.7484C27.6875 23.3017 26.4283 24.5609 24.875 24.5609H6.125C4.5717 24.5609 3.3125 23.3017 3.3125 21.7484V8.62335M27.6875 8.62335C27.6875 7.07005 26.4283 5.81085 24.875 5.81085H6.125C4.5717 5.81085 3.3125 7.07005 3.3125 8.62335M27.6875 8.62335V8.92674C27.6875 9.90341 27.1808 10.8102 26.349 11.322L16.974 17.0913C16.0701 17.6475 14.9299 17.6475 14.026 17.0913L4.65098 11.322C3.81919 10.8102 3.3125 9.90341 3.3125 8.92674V8.62335" stroke="#0A0C10" stroke-width="1.5" stroke-linecap="round" stroke-linejoin="round"/>
</svg>
